# xmcd
# Track frame offsets:
# 150
# 13701
# 25740
# 41495
# 54953
# 73227
# 84428
# 97674
# 113509
# 130422
# 143421
# 154237
#
# Disc length: 2276 seconds
# Revision: 0
# Processed by: cddbd v1.5.2PL0 Copyright (c) Steve Scherf et al.
# Submitted via: VisiTrax 2.11.2.271 - For more info visit www.synapsa.com
#
DISCID=8c08e20c
DTITLE=Mandy Barnett - Sweet Dreams
DYEAR=2011
DGENRE=
TTITLE0=Always
TTITLE1=Bill baily Won´t You Please Come Home
TTITLE2=Crazy
TTITLE3=I fall To Pieces
TTITLE4=Faded love
TTITLE5=Have You Ever Been Lonely
TTITLE6=Life´s Railroad To Heaven
TTITLE7=She´s Got You
TTITLE8=So Wrong
TTITLE9=Strange
TTITLE10=Walking After Midnight
TTITLE11=Sweet Dreams
EXTD=
EXTT0=
EXTT1=
EXTT2=
EXTT3=
EXTT4=
EXTT5=
EXTT6=
EXTT7=
EXTT8=
EXTT9=
EXTT10=
EXTT11=
PLAYORDER=
